#!OML:ASF E:\acrobat2\Project_11_07_03\Capture day 1\Session 1\Acrobat.ASF
:FULLY-SPECIFIED
:DEGREES
1254
root 10.677 17.8662 3.99929 1.37879 -0.0896525 0.194729
lowerback 3.81647 -3.53783 -2.4306
upperback 2.59138 -4.78203 -0.581831
thorax 0.676724 -2.41771 0.903409
lowerneck 6.75459 -9.26884 -4.86323
upperneck -2.06464 -13.0075 -5.81263
head -1.86969 -6.28129 -0.553252
rclavicle 3.54831e-014 1.15295e-014
rhumerus -41.5885 -8.90339 -65.4601
rradius 21.9088
rwrist 3.4226
rhand -2.77439 -37.7844
rfingers 7.12502
rthumb 22.9305 -66.4408
lclavicle 3.54831e-014 1.15295e-014
lhumerus -27.9009 -13.104 77.7994
lradius 32.1703
lwrist 8.33237
lhand -11.495 -13.0623
lfingers 7.12502
lthumb 14.5436 16.4079
rfemur -22.0166 0.0897878 21.7543
rtibia 9.28751
rfoot -15.9608 -8.62208
rtoes -6.70416
lfemur -1.1758 7.96833 -22.4641
ltibia 23.783
lfoot -374.226 -17.4513
ltoes 41.9109
1255
root 10.6527 17.9211 3.93541 1.53659 -0.418027 0.0527902
lowerback 3.62642 -3.5427 -2.36841
upperback 2.48255 -4.78341 -0.567961
thorax 0.666702 -2.41678 0.874733
lowerneck 6.88956 -9.32581 -4.95503
upperneck -1.95333 -13.0881 -5.74446
head -1.84536 -6.32456 -0.512542
rclavicle 1.36167e-014 4.37326e-015
rhumerus -41.7985 -8.20234 -66.1897
rradius 22.0422
rwrist 3.92617
rhand -1.87321 -37.518
rfingers 7.12502
rthumb 23.795 -66.0645
lclavicle 1.36167e-014 4.37326e-015
lhumerus -28.3209 -13.1168 78.068
lradius 32.8433
lwrist 8.56091
lhand -11.2589 -13.0098
lfingers 7.12502
lthumb 14.7711 16.4438
rfemur -21.8405 0.0227649 21.6036
rtibia 9.60351
rfoot -15.8883 -8.52425
rtoes -6.8264
lfemur -0.97056 7.99188 -22.2522
ltibia 22.6142
lfoot -374.059 -16.6191
ltoes 41.1777
1256
root 10.6281 17.9749 3.87214 1.6986 -0.733068 -0.113161
lowerback 3.45085 -3.55152 -2.31076
upperback 2.37736 -4.79071 -0.52541
thorax 0.655478 -2.41916 0.878725
lowerneck 6.94711 -9.39637 -5.03471
upperneck -1.82439 -13.1802 -5.692
head -1.80365 -6.37564 -0.482867
rclavicle -1.63997e-015 -7.15625e-015
rhumerus -41.9985 -7.45655 -66.9083
rradius 22.2484
rwrist 4.38718
rhand -0.917056 -37.2726
rfingers 7.12502
rthumb 24.7117 -65.6966
lclavicle -1.63997e-015 -7.15625e-015
lhumerus -28.7396 -13.1225 78.3732
lradius 33.4869
lwrist 8.76575
lhand -11.0174 -13.0079
lfingers 7.12502
lthumb 15.0037 16.4285
rfemur -21.689 -0.0708337 21.4694
rtibia 10.023
rfoot -15.8286 -8.37828
rtoes -6.91419
lfemur -0.799641 7.97511 -22.022
ltibia 21.5143
lfoot -373.86 -15.8251
ltoes 40.6378
1257
root 10.6029 18.0264 3.80931 1.854 -1.04782 -0.316681
lowerback 3.30177 -3.56249 -2.24919
upperback 2.27469 -4.80165 -0.44839
thorax 0.634905 -2.42353 0.917416
lowerneck 6.95318 -9.47286 -5.11835
upperneck -1.70867 -13.2785 -5.65036
head -1.75781 -6.43013 -0.458242
rclavicle -1.1281e-014 5.1684e-015
rhumerus -42.2026 -6.65315 -67.6122
rradius 22.5325
rwrist 4.78282
rhand 0.0815312 -37.0788
rfingers 7.12502
rthumb 25.6685 -65.3683
lclavicle -1.1281e-014 5.1684e-015
lhumerus -29.1761 -13.1345 78.7202
lradius 34.1022
lwrist 8.96122
lhand -10.7809 -13.0805
lfingers 7.12502
lthumb 15.2316 16.3388
rfemur -21.549 -0.176613 21.3719
rtibia 10.5376
rfoot -15.7721 -8.19956
rtoes -6.90458
lfemur -0.654098 7.9294 -21.7482
ltibia 20.4865
lfoot -373.664 -15.0618
ltoes 40.2235
1258
root 10.5771 18.0751 3.74717 1.99409 -1.36346 -0.549828
lowerback 3.17743 -3.57538 -2.18308
upperback 2.17745 -4.81574 -0.345889
thorax 0.608112 -2.42961 0.98106
lowerneck 6.93304 -9.54002 -5.23085
upperneck -1.60093 -13.3641 -5.57606
head -1.70538 -6.47917 -0.421454
rclavicle -5.96354e-015 -1.74931e-014
rhumerus -42.4218 -5.80453 -68.2984
rradius 22.8921
rwrist 5.10343
rhand 1.11362 -36.9394
rfingers 7.12502
rthumb 26.6566 -65.0825
lclavicle -5.96354e-015 -1.74931e-014
lhumerus -29.6481 -13.1597 79.099
lradius 34.7142
lwrist 9.12303
lhand -10.5696 -13.1979
lfingers 7.12502
lthumb 15.4351 16.2058
rfemur -21.4103 -0.309239 21.3051
rtibia 11.1363
rfoot -15.6937 -8.00819
rtoes -6.91707
lfemur -0.52449 7.86333 -21.438
ltibia 19.5365
lfoot -373.496 -14.334
ltoes 39.8712
1259
root 10.5508 18.1201 3.6855 2.11983 -1.67875 -0.803057
lowerback 3.06602 -3.58969 -2.11487
upperback 2.09096 -4.83195 -0.231013
thorax 0.586176 -2.43696 1.05658
lowerneck 6.92764 -9.60643 -5.36044
upperneck -1.53737 -13.4524 -5.45802
head -1.66533 -6.52852 -0.367026
rclavicle -1.17283e-014 -7.95139e-016
rhumerus -42.6391 -4.95429 -68.9621
rradius 23.2824
rwrist 5.36122
rhand 2.13454 -36.8376
rfingers 7.12502
rthumb 27.6333 -64.8282
lclavicle -1.17283e-014 -7.95139e-016
lhumerus -30.1617 -13.2112 79.4927
lradius 35.3481
lwrist 9.24721
lhand -10.4111 -13.3298
lfingers 7.12502
lthumb 15.5878 16.062
rfemur -21.276 -0.441728 21.2508
rtibia 11.8002
rfoot -15.5943 -7.85444
rtoes -7.08009
lfemur -0.412658 7.77908 -21.1027
ltibia 18.6657
lfoot -373.363 -13.6485
ltoes 39.588
